<?xml version="1.0" standalone="no"?>
<!DOCTYPE svg PUBLIC "-//W3C//DTD SVG 20010904//EN"
 "http://www.w3.org/TR/2001/REC-SVG-20010904/DTD/svg10.dtd">
<svg version="1.0" xmlns="http://www.w3.org/2000/svg"
 width="331.000000pt" height="331.000000pt" viewBox="0 0 331.000000 331.000000"
 preserveAspectRatio="xMidYMid meet">

<g transform="translate(0.000000,331.000000) scale(0.100000,-0.100000)"
fill="#000000" stroke="none">
<path d="M2935 2883 c-16 -9 -165 -100 -330 -203 -165 -103 -360 -224 -433
-268 l-134 -81 -66 43 c-37 24 -224 146 -417 271 -192 126 -360 230 -372 233
l-23 4 -2 -358 -3 -359 -80 -53 c-84 -56 -904 -569 -990 -619 -27 -16 -50 -35
-50 -41 0 -10 322 -221 745 -490 74 -47 140 -90 147 -96 9 -8 -1 -42 -41 -136
-85 -202 -158 -364 -168 -377 -5 -7 -7 -17 -3 -23 7 -12 2243 -14 2263 -2 16
11 13 2564 -3 2568 -5 2 -23 -4 -40 -13z m5 -136 l0 -84 -182 -115 c-270 -170
-703 -437 -722 -444 -14 -5 -16 5 -16 78 l0 84 38 22 c20 11 226 138 457 281
231 144 421 261 423 261 1 0 2 -37 2 -83z m-1606 -12 l106 -70 0 -94 c0 -71
-3 -92 -13 -88 -7 2 -58 34 -115 71 l-102 66 0 96 c0 53 4 94 9 92 4 -1 56
-34 115 -73z m384 -251 c125 -81 235 -154 245 -164 18 -16 16 -19 -48 -58 -36
-23 -71 -42 -77 -42 -6 0 -77 42 -157 94 -80 51 -156 98 -168 105 -20 10 -22
20 -25 111 -2 55 -2 100 0 100 1 0 105 -66 230 -146z m1202 101 c0 -3 -6 -20
-14 -38 -8 -18 -73 -169 -145 -337 l-131 -305 0 -176 0 -176 -57 -36 c-32 -19
-62 -36 -67 -36 -6 -1 -9 59 -7 147 l3 149 -154 99 c-84 55 -181 118 -215 139
-35 22 -62 43 -60 47 1 4 148 98 327 209 179 111 366 228 415 259 88 57 105
66 105 55z m-1587 -99 l107 -68 0 -150 c0 -175 14 -167 -132 -75 l-97 62 -1
153 c0 85 4 152 8 150 5 -1 56 -34 115 -72z m1605 -1492 l-3 -508 -52 130
c-29 71 -89 219 -134 328 l-81 200 3 376 4 375 130 304 130 303 3 -500 c1
-275 1 -729 0 -1008z m-1240 1254 l92 -60 0 -314 c0 -173 -2 -314 -5 -314 -3
0 -60 35 -127 79 -68 43 -133 83 -145 90 l-23 12 0 320 0 320 58 -37 c31 -20
99 -63 150 -96z m276 -49 c3 -17 6 -42 6 -55 l0 -23 -34 20 c-59 34 -62 45
-24 69 43 26 44 26 52 -11z m-621 -87 c37 -24 65 -47 62 -51 -2 -5 -31 -24
-62 -43 -58 -35 -647 -400 -799 -496 l-81 -50 -82 52 -82 52 405 253 c466 290
496 312 496 347 l0 26 38 -23 c20 -13 67 -43 105 -67z m570 -14 l57 -39 -1
-232 c-1 -128 -4 -335 -8 -461 l-6 -229 -62 -39 -63 -38 0 546 c0 433 3 544
13 538 6 -4 38 -25 70 -46z m345 -223 c95 -60 171 -113 170 -117 -2 -5 -244
-161 -410 -265 -5 -2 -8 118 -8 267 l0 271 38 -23 c21 -13 115 -72 210 -133z
m-829 -2 l0 -138 -227 -140 c-125 -77 -227 -147 -227 -155 0 -8 100 -77 222
-154 122 -78 224 -143 226 -146 3 -3 -44 -36 -104 -74 l-109 -68 -342 220
c-188 120 -343 223 -345 228 -2 8 883 563 900 564 4 0 7 -62 6 -137z m201
-279 l150 -96 0 -74 c0 -41 -3 -74 -7 -74 -5 0 -73 -41 -152 -90 -79 -50 -147
-90 -152 -90 -8 0 -398 247 -416 264 -9 8 39 42 195 138 114 70 213 125 220
123 7 -2 80 -48 162 -101z m810 -26 l-1 -133 -191 -120 c-105 -66 -201 -126
-214 -133 l-24 -13 0 134 0 134 208 131 c114 71 210 130 215 131 4 1 7 -59 7
-131z m-2103 -74 c40 -25 73 -48 73 -52 0 -13 -141 -94 -154 -89 -7 3 -46 26
-86 52 l-72 46 68 44 c38 24 75 44 83 44 8 1 47 -20 88 -45z m2278 -1101 c-5
-21 -11 -23 -70 -23 l-65 0 0 519 0 520 68 40 67 41 3 -538 c1 -295 0 -547 -3
-559z m-1734 762 c118 -76 236 -153 264 -171 27 -19 56 -34 63 -34 11 0 403
241 545 334 l28 19 -3 -139 -3 -138 -95 -59 c-271 -169 -406 -250 -421 -254
-16 -4 -119 59 -384 234 -66 44 -220 144 -342 222 -123 79 -223 145 -223 147
0 2 35 25 77 53 l76 49 102 -63 c56 -34 198 -124 316 -200z m1551 -293 l-4
-492 -209 0 -209 0 0 373 0 372 107 65 c59 36 152 93 207 127 55 35 103 59
107 55 3 -4 4 -229 1 -500z m-462 -137 l0 -355 -70 0 -70 0 0 318 0 318 63 37
c34 20 65 37 70 37 4 0 7 -160 7 -355z m841 -77 c60 -147 109 -270 109 -273 0
-3 -58 -5 -130 -5 l-130 0 1 318 0 317 21 -45 c11 -25 69 -165 129 -312z
m-1034 -275 c-2 -2 -220 -2 -484 -1 l-481 3 231 143 c128 78 345 212 482 297
l250 155 3 -297 c1 -163 1 -298 -1 -300z m-681 376 c63 -40 113 -73 112 -74
-13 -13 -412 -255 -414 -252 -2 2 15 46 39 98 24 52 64 140 87 197 24 56 48
102 53 102 5 0 61 -32 123 -71z"/>
</g>
</svg>
